<svg id="Capa_1" data-name="Capa 1" xmlns="http://www.w3.org/2000/svg" xmlns:xlink="http://www.w3.org/1999/xlink" viewBox="0 0 121.41 30.7"><defs><style>.cls-1{fill:#f8f9fa;}.cls-2{fill:#fff;}.cls-3{fill:url(#Degradado_sin_nombre_14);}</style><linearGradient id="Degradado_sin_nombre_14" x1="2.34" y1="-36.07" x2="19.44" y2="31.5" gradientUnits="userSpaceOnUse"><stop offset="0.53" stop-color="#2da747"/><stop offset="1" stop-color="#1c7c61"/></linearGradient></defs><path class="cls-1" d="M45.47,9.4A7.39,7.39,0,0,0,40,11.66a7.52,7.52,0,0,0-2.23,5.45A7.72,7.72,0,0,0,51,22.62a7.55,7.55,0,0,0,2.24-5.51A7.72,7.72,0,0,0,45.47,9.4Zm0,2a5.2,5.2,0,0,1,3.94,1.69A5.73,5.73,0,0,1,51,17.11a5.53,5.53,0,0,1-1.63,4.06,5.48,5.48,0,0,1-7.86,0,5.55,5.55,0,0,1-1.61-4.08,5.73,5.73,0,0,1,1.61-4.06A5.19,5.19,0,0,1,45.46,11.36Z"/><path class="cls-1" d="M56.15,4.43a8.29,8.29,0,0,0-1.21,4.62V24.61H57V11.67h6v-2H57v-.5a6.76,6.76,0,0,1,.77-3.34c.46-.83,1.6-1.25,3.36-1.25H63v-2h-1.8C58.68,2.53,57,3.17,56.15,4.43Z"/><path class="cls-1" d="M65.29,4.43a8.29,8.29,0,0,0-1.21,4.62V24.61h2.06V11.67h6v-2h-6v-.5A6.76,6.76,0,0,1,66.9,5.8c.46-.83,1.6-1.25,3.36-1.25h1.86v-2h-1.8C67.82,2.53,66.13,3.17,65.29,4.43Z"/><path class="cls-1" d="M85.62,17.54a5.64,5.64,0,0,1-1.47,3.56A5,5,0,0,1,80,22.84a5.32,5.32,0,0,1-4-1.72A5.67,5.67,0,0,1,74.39,17,5.47,5.47,0,0,1,80,11.42a5,5,0,0,1,2.61.7,6.3,6.3,0,0,1,1.28,1l-9.45,6.1,1,1.65,11.33-7.29-.17-.32a8.22,8.22,0,0,0-2.34-2.49A6.9,6.9,0,0,0,80,9.4a7.61,7.61,0,0,0-7.66,7.65,7.61,7.61,0,0,0,2.23,5.58A7.43,7.43,0,0,0,80,24.86a7.77,7.77,0,0,0,5.33-2.06,6.79,6.79,0,0,0,2.32-5.26v-.38h-2Z"/><path class="cls-1" d="M96.9,11.61v-2H95.51a5.17,5.17,0,0,0-3.25,1,5.68,5.68,0,0,0-1,1.05v-2h-2v15h2V17.13a7.58,7.58,0,0,1,1-3.85,3.43,3.43,0,0,1,3.25-1.67Z"/><path class="cls-1" d="M102.93,9.4a7.41,7.41,0,0,0-5.46,2.26,7.54,7.54,0,0,0-2.22,5.45,7.7,7.7,0,1,0,15.4,0,7.72,7.72,0,0,0-7.72-7.71Zm0,2a5.16,5.16,0,0,1,3.93,1.69,5.7,5.7,0,0,1,1.62,4.06,5.53,5.53,0,0,1-1.63,4.06,5.48,5.48,0,0,1-7.86,0,5.56,5.56,0,0,1-1.62-4.08A5.74,5.74,0,0,1,99,13.05,5.17,5.17,0,0,1,102.92,11.36Z"/><path class="cls-1" d="M119.34,11.67h2.07v-2h-2.07a7.75,7.75,0,0,0-5.89,2.26,7.46,7.46,0,0,0,0,10.46,7.74,7.74,0,0,0,5.87,2.25h2.07v-2h-2.07A5.8,5.8,0,0,1,115,21a5.32,5.32,0,0,1-1.55-3.89,5.24,5.24,0,0,1,1.62-3.78A5.69,5.69,0,0,1,119.34,11.67Z"/><path class="cls-2" d="M17.67,3.39l-1.22-.28H16.4l-1.25.5,0,0v0a.06.06,0,0,0,0,.07l.9.9a1.13,1.13,0,0,0-.17.68,3,3,0,0,0,.08.32A1.9,1.9,0,0,0,16.1,6a1.44,1.44,0,0,0,.22.19,1.52,1.52,0,0,0,.46.22l-.19,1.27s0,0,0,.06a.1.1,0,0,0,.07,0L18,7.36a.05.05,0,0,0,0,0l.78-1a8.63,8.63,0,0,0,1.08-.32A5.7,5.7,0,0,0,23.2,3.64a1.17,1.17,0,0,0,.14-.31.08.08,0,0,0,0-.08c-.06,0-1.52-1.16-4.72-.22A7.37,7.37,0,0,0,17.67,3.39Zm1.11.73a.73.73,0,0,1,1-.29.74.74,0,1,1-1,.29Z"/><circle class="cls-3" cx="15.35" cy="15.35" r="15.35"/><path class="cls-1" d="M15.66,6.27a1.23,1.23,0,0,1-.31-.48,1.32,1.32,0,0,1-.07-.61,20.19,20.19,0,0,0-3.17,1.45,17.18,17.18,0,0,0-4.63,3.59,12.81,12.81,0,0,0-2.71,4.41,12.54,12.54,0,0,0-.5,5.74A13,13,0,0,0,5.5,24.3,12,12,0,0,0,8,27.77a11.41,11.41,0,0,0,6.32,2.83,11.27,11.27,0,0,0,3.16-.05c.75-.09,6.25-.85,9.49-5.17h0a15.51,15.51,0,0,0,1.89-2.76c.79-1.48,1.6-3.56,1.37-3.68s-1.68,4.66-6,7.31c-.35.22-5.07,3-10.14,1.21a10.28,10.28,0,0,1-2.9-1.6,11.15,11.15,0,0,1-4.17-9.1c.26-5.8,5.17-8.86,6-9.37A11.72,11.72,0,0,1,15.66,6.27Z"/><path class="cls-2" d="M17.67,3.39,16.45,3.1H16.4l-1.25.49s0,0,0,0v0a0,0,0,0,0,0,.06l.9.9a1.15,1.15,0,0,0-.17.68,3,3,0,0,0,.08.32A2.56,2.56,0,0,0,16.1,6l.22.19a2.21,2.21,0,0,0,.46.22l-.19,1.26a.06.06,0,0,0,0,.07.09.09,0,0,0,.07,0L18,7.36l0,0,.78-1a8.52,8.52,0,0,0,1.08-.31A5.79,5.79,0,0,0,23.2,3.64a1.35,1.35,0,0,0,.14-.31.08.08,0,0,0,0-.08c-.06,0-1.52-1.16-4.72-.22A7.37,7.37,0,0,0,17.67,3.39Zm1.11.73a.74.74,0,1,1,1.3.71.75.75,0,0,1-1,.3A.74.74,0,0,1,18.78,4.12Z"/></svg>