<svg xmlns="http://www.w3.org/2000/svg" width="143" height="24" viewBox="0 0 143 24">
    <g fill="#212935" fill-rule="nonzero">
        <path d="M47.49 23H44V1h3.485v9.428h3.965V1H55v22h-3.55v-9.428h-3.96zM58 4h3v19h-2.993zM64 4h4.633C71.562 4 73 5.656 73 8.696v9.608C73 21.344 71.562 23 68.633 23H64V4zm2.933 2.715v13.57h1.653c.93 0 1.49-.482 1.49-1.844V8.57c0-1.357-.56-1.846-1.49-1.846l-1.653-.01zM77.935 12.006h4.02v2.716h-4.02v5.563H83V23h-8V4h8v2.715h-5.065zM86 8.674C86 5.7 87.59 4 90.5 4S95 5.7 95 8.674v9.654C95 21.3 93.41 23 90.5 23S86 21.3 86 18.328V8.674zm2.963 9.845c0 1.328.593 1.832 1.537 1.832s1.537-.504 1.537-1.832V8.488c0-1.328-.593-1.832-1.537-1.832s-1.537.504-1.537 1.832v10.031zM101.018 4v14.472c0 1.338.603 1.82 1.565 1.82.961 0 1.562-.475 1.562-1.82V4H107v14.284c0 3.002-1.536 4.716-4.5 4.716S98 21.293 98 18.284V4h3.018zM109.016 4H118v2.715h-3.047V23h-2.906V6.715H109zM118 1h11v3.143h-3.713V23h-3.562V4.143H118zM137.127 18.944h.062L139.811 1H143l-3.41 22h-5.18L131 1h3.506zM36.944 23.593A22.207 22.207 0 0 0 33.391 23c-.142 0-.345-.073-.402-.208L27.67 10.399a.546.546 0 0 0-.619-.322c-1.062.246-3.75.837-4.675 1.102-.99.28-5.039 1.492-6.226 1.85V8.348c3.05-.758 6.04 1.227 9.09.331a.594.594 0 0 0 .417-.545c.082-2 .445-4 .559-6a.542.542 0 0 0-.195-.45.52.52 0 0 0-.472-.1c-3.159.751-6.26-1.414-9.437-.211h-.125a.486.486 0 0 0-.482.49V13.39c-.69.587-2.352 2.047-3.346 3.33-.585.717-1.23 1.38-1.926 1.984a28.999 28.999 0 0 1-1.685 1.406c-.277.18-.559.359-.84.533-1.541.947-3.145 1.78-4.437 2.187 0 0-1.895.554-2.969.922-.108.037-.303.096-.303.172 0 .076 1.276.093 3.03.06 1.756-.035 3.506-.094 5.259-.15l5.255-.168a806.893 806.893 0 0 1 6.563-.193c.438-.008.874-.025 1.312-.03.873-.018 1.747-.03 2.621-.04 1.748 0 3.496 0 5.244.048 1.747.046 3.495.132 5.245.21l2.376.111a.094.094 0 0 0 .039-.18zM18.961 2.133a.174.174 0 0 1 .099-.142.168.168 0 0 1 .17.017l3.852 2.77a.176.176 0 0 1-.026.302l-4.28 2.01a.168.168 0 0 1-.17-.016.176.176 0 0 1-.071-.158l.426-4.783zm5.32 10.7a20.22 20.22 0 0 0-1.712 2.312c-2.556 3.988-4.656 6.406-5.503 7.277a.404.404 0 0 1-.255.12c-.125.015-.25.037-.373.064a2.63 2.63 0 0 1-1.406-.076l-.075-.024a.414.414 0 0 1-.108-.692c1.266-1.095 3.982-3.486 5.607-6.178a.087.087 0 0 0 .01-.085.084.084 0 1 0-.145-.018c-1.334 1.568-4.67 5.274-7.67 6.791-.356.184-2.499.648-3.13.704h-.074c-.595-.059-1.125-.299-1.726-.449a4.178 4.178 0 0 0-.374-.08.56.56 0 0 1-.161-1.04c.24-.139.5-.281.74-.428l.204-.128c.113-.071.224-.145.334-.218 1.315-.843 2.616-1.7 3.905-2.57a23.462 23.462 0 0 0 2.167-1.563c.31-.268.067-.332-.135-.202-.537.351-1.572.945-2.13 1.264a.067.067 0 0 1-.084-.02.07.07 0 0 1 .004-.088c.884-.94 3.404-3.585 4.247-3.944 1.018-.437 3.281-1.11 5.229-1.659a.27.27 0 0 1 .327.162.28.28 0 0 1-.123.349c-1.502.999-2.385 1.678-2.698 2.098a.107.107 0 0 0 .006.137.102.102 0 0 0 .133.015c1.904-1.212 2.867-1.924 4.444-2.67.537-.26.915.385.525.84zm7.846 9.832c-.722-.069-4.615-.442-5.573-.447a.07.07 0 0 1-.05-.024.072.072 0 0 1-.018-.054l1.019-10.367a.07.07 0 1 1 .132-.02l4.555 10.816a.067.067 0 0 1-.005.068.065.065 0 0 1-.06.028z"/>
    </g>
</svg>
