<svg xmlns="http://www.w3.org/2000/svg" xmlns:xlink="http://www.w3.org/1999/xlink" viewBox="0 0 480.07 150.81"><defs><style>.cls-1{fill:none;clip-rule:evenodd;}.cls-2{fill:#49525c;}.cls-3{clip-path:url(#clip-path);}.cls-4{fill:url(#linear-gradient);}</style><clipPath id="clip-path" transform="translate(0.02 4.73)"><path class="cls-1" d="M47.86,38c11.48-3.36,54.77,21.29,54.77,32.7s-43.29,36.06-54.77,32.7-11.48-62,0-65.4M97.93,14.15C130.58,33,130.54,33,130.56,70.67s0,37.66-32.63,56.53-32.63,18.84-65.27,0S0,108.37,0,70.63,0,33,32.66,14.13,65.26-4.69,97.93,14.15Z"/></clipPath><linearGradient id="linear-gradient" y1="75.4" x2="130.6" y2="75.4" gradientUnits="userSpaceOnUse"><stop offset="0" stop-color="#00e6ff"/><stop offset="1" stop-color="#14faa6"/></linearGradient></defs><g id="Layer_2" data-name="Layer 2"><g id="Layer_1-2" data-name="Layer 1"><path class="cls-2" d="M370.71,108.29a9.41,9.41,0,0,1-6.92-2.81,9.53,9.53,0,0,1-2.81-7,9.15,9.15,0,0,1,2.81-7,10.33,10.33,0,0,1,13.84,0,9.12,9.12,0,0,1,2.81,7,9.6,9.6,0,0,1-9.73,9.83m-15.14-3.41a16,16,0,0,1-5.66,2.56,28.21,28.21,0,0,1-7,.85q-9.72,0-14.94-4.91t-5.22-14.45V41.58h11.34a4.33,4.33,0,0,1,4.31,4.15v9h10.89v12H338.42v22A7.51,7.51,0,0,0,340.13,94a6.35,6.35,0,0,0,4.92,1.85C350.79,95.85,351.83,94.82,355.57,104.88Zm-68.22-9.43a13,13,0,0,0,9.88-4.06q3.86-4.06,3.86-10.89t-3.86-10.88a14.11,14.11,0,0,0-19.81,0q-3.93,4.06-3.92,10.88t3.92,10.89A13.16,13.16,0,0,0,287.35,95.45Zm0,12.84a32.39,32.39,0,0,1-15.3-3.56,26.5,26.5,0,0,1-10.59-9.88,27.25,27.25,0,0,1-3.81-14.35,27.21,27.21,0,0,1,3.81-14.34,26.5,26.5,0,0,1,10.59-9.88,34.44,34.44,0,0,1,30.54,0,26.63,26.63,0,0,1,10.54,9.88,27.21,27.21,0,0,1,3.81,14.34,27.25,27.25,0,0,1-3.81,14.35,26.63,26.63,0,0,1-10.54,9.88A32.09,32.09,0,0,1,287.35,108.29ZM223,95.45a13,13,0,0,0,9.88-4.06q3.87-4.06,3.86-10.89T232.9,69.62A13,13,0,0,0,223,65.56a13.19,13.19,0,0,0-9.93,4.06q-3.92,4.06-3.92,10.88t3.92,10.89A13.19,13.19,0,0,0,223,95.45Zm0,12.84a32.42,32.42,0,0,1-15.3-3.56,26.47,26.47,0,0,1-10.58-9.88,27.25,27.25,0,0,1-3.81-14.35,27.21,27.21,0,0,1,3.81-14.34,26.47,26.47,0,0,1,10.58-9.88,34.46,34.46,0,0,1,30.55,0,26.54,26.54,0,0,1,10.53,9.88,27.21,27.21,0,0,1,3.81,14.34,27.25,27.25,0,0,1-3.81,14.35,26.54,26.54,0,0,1-10.53,9.88A32.13,32.13,0,0,1,223,108.29ZM163.13,33.05h11.33a4.33,4.33,0,0,1,4.32,4.32V88.93A7.21,7.21,0,0,0,180.49,94a6.34,6.34,0,0,0,4.91,1.85c5.75,0,6.79-1,10.53,9a16,16,0,0,1-5.66,2.56,28.21,28.21,0,0,1-7,.85q-9.72,0-14.94-4.91t-5.22-14.45ZM419,104.88a16.09,16.09,0,0,1-5.67,2.56,28.13,28.13,0,0,1-7,.85q-9.74,0-14.95-4.91t-5.21-14.45V41.58H397.5a4.33,4.33,0,0,1,4.32,4.15v9H412.7v12H401.82v22a7.51,7.51,0,0,0,1.7,5.27,6.38,6.38,0,0,0,4.92,1.85C414.18,95.85,415.22,94.82,419,104.88Zm30.67,2.61H441.4L419.24,54.72H429.5c2.81,0,6.21,1.68,7.28,4.29l12.86,31.61L462.51,59c1.06-2.61,4.46-4.29,7.28-4.29h10.26l-22.17,52.77Z" transform="translate(0.02 4.73)"/><g class="cls-3"><rect class="cls-4" width="130.6" height="150.81"/></g></g></g></svg>